<svg xmlns="http://www.w3.org/2000/svg" x="0px" y="0px" width="25" height="25" viewBox="0 0 48 48">
<path d="M 13.5 4 C 10.467 4 8 6.467 8 9.5 L 8 37 L 8 37.5 L 8 38.5 C 8 41.519774 10.480226 44 13.5 44 L 39.5 44 A 1.50015 1.50015 0 1 0 39.5 41 L 13.5 41 C 12.273237 41 11.277238 40.152347 11.050781 39 L 39.5 39 C 40.329 39 41 38.329 41 37.5 L 41 9.5 C 41 6.467 38.533 4 35.5 4 L 13.5 4 z M 24.5 12 C 26.43 12 28 13.57 28 15.5 C 28 17.43 26.43 19 24.5 19 C 22.57 19 21 17.43 21 15.5 C 21 13.57 22.57 12 24.5 12 z M 19.5 23 L 29.5 23 C 30.327 23 31 23.673 31 24.5 L 31 27 C 31 29.206 28.084 31 24.5 31 C 20.916 31 18 29.206 18 27 L 18 24.5 C 18 23.673 18.673 23 19.5 23 z"></path>
</svg>